<?xml version="1.0" encoding="utf-8"?>
<svg width="432" height="432" viewBox="0 0 432 432"
     xmlns="http://www.w3.org/2000/svg" version="1.1">
  <defs>
    <linearGradient id="grad" 
        x1="156.34" y1="-36.88" 
        x2="275.28" y2="467.28" 
        gradientUnits="userSpaceOnUse">
      <stop offset="0%" stop-color="#9196FE"/>
      <stop offset="100%" stop-color="#72BFFE"/>
    </linearGradient>
  </defs>

  <!-- 底层圆形渐变背景 -->
  <circle cx="216" cy="216" r="216" fill="url(#grad)" />

  <!-- 顶层白色图案（整体放大 1.1 倍） -->
  <g fill="#FEFEFE" transform="translate(216,216) scale(1.5) translate(-216,-216)">
    <path d="M151,247.5c-0.71,4.33 -5.39,10.14 -9.74,11.25 -2.99,0.76 -15.99,2.25 -18.64,1.97 -4.03,-0.43 -5.36,-4.78 -5.66,-8.17 -1.85,-20.32 2.74,-43.08 -0.01,-62.99 -0.26,-1.88 -1.92,-2.97 -2.05,-6.04 -0.31,-7.15 3.48,-22.26 10.88,-25.26l44.68,-5.22c8.32,0.42 6.3,20.08 3.76,24.66 -4.65,8.37 -21.74,4.85 -23.21,6.29 -0.34,0.33 0.24,6.54 0,8.01 2.15,2.15 23.02,-5.1 25.84,0.66l1.15,7.33c0.1,-1.41 1,-2.57 1.97,-3.54 11.74,-11.81 31.23,-16.19 47.29,-13.2 5.34,0.99 13.74,3.18 14.69,9.31 2.02,12.95 -1.41,30.47 0.06,43.94 0.62,5.67 5.5,7.34 0,10.01 -4.12,2 -10.76,3.01 -15.27,2.25 -2.6,-0.44 -7.84,-3.84 -9.09,-3.6 -0.46,0.09 -5.14,3.81 -7.28,4.71 -21.56,9.01 -43.24,-8.09 -40.36,-30.87l-19,1c-0.97,8.35 1.32,19.53 0,27.5ZM214,201c-11.61,0.67 -16.99,12 -16.04,22.55 1.24,13.85 16.04,7.88 16.04,2.95v-25.5Z"/>
    <path d="M287,233c-24.58,5.75 -45.06,-11.24 -44.04,-36.55 0.75,-18.57 15.58,-31.4 34.3,-28.21 4.08,0.7 11.85,6.41 13.23,6.42s5.59,-2.96 8.24,-3.41c4.37,-0.74 8.89,-0.09 12.96,1.56 8.62,3.49 2.96,4.02 2.28,9.67l-0.43,73.57c-1.38,5.66 -20.03,2.35 -23.08,-0.02 -0.4,-0.31 -3.47,-4.24 -3.47,-4.53v-18.5ZM287,215.5c0.82,-2.68 0,-14.99 0,-19 0,-1.97 -3.04,-7.14 -5.02,-7.97 -13.82,-5.78 -13.62,16.49 -5.52,24.51 1.99,1.97 9.33,6.39 10.54,2.46Z"/>
  </g>
</svg>
